<svg xmlns="http://www.w3.org/2000/svg" width="15" height="20" viewBox="0 0 15 20">
    <path fill="#CACACA" fill-rule="nonzero" d="M14.583 7.5h-1.25V5.833A5.84 5.84 0 0 0 7.5 0a5.84 5.84 0 0 0-5.833 5.833V7.5H.417A.416.416 0 0 0 0 7.917v10.416C0 19.253.747 20 1.667 20h11.666c.92 0 1.667-.747 1.667-1.667V7.917a.416.416 0 0 0-.417-.417zm-5.835 8.704a.418.418 0 0 1-.415.463H6.667a.417.417 0 0 1-.415-.463l.263-2.364a1.648 1.648 0 0 1-.682-1.34c0-.92.748-1.667 1.667-1.667.92 0 1.667.748 1.667 1.667 0 .539-.255 1.03-.682 1.34l.263 2.364zM10.833 7.5H4.167V5.833A3.337 3.337 0 0 1 7.5 2.5a3.337 3.337 0 0 1 3.333 3.333V7.5z"/>
</svg>
