<svg xmlns="http://www.w3.org/2000/svg" width="85" height="96" viewBox="0 0 85 96">
    <g fill="none" fill-rule="nonzero">
        <path fill="#DEEFEC" d="M84.326 90.246c0 2.953-17.156 5.346-38.32 5.346S7.685 93.199 7.685 90.246c0-2.952 17.157-5.346 38.32-5.346 21.165 0 38.321 2.394 38.321 5.346z" opacity=".2"/>
        <path fill="#E6E6E6" d="M54.61 78.555s-1.756 7.801 1.45 9.882c3.207 2.08 6.718.148 6.718.148l-.076-10.699-8.397.743.305-.074zM38.803 78.505s1.712 7.802-1.414 9.882-6.55.149-6.55.149l.074-10.7 8.188.744-.298-.075z"/>
        <path fill="#F7F7F7" d="M17.187 46.01c-4.232 7.57-4.11 17.362.313 24.826 1.065 1.799 2.369 3.487 3.071 5.454.998 2.796.688 5.87 1.166 8.799.48 2.927 2.226 6.083 5.178 6.528 2.35.354 4.65-1.217 5.887-3.235 1.236-2.018 1.64-4.415 2.053-6.741.063-.355.151-.747.452-.948.17-.113.381-.143.585-.17a127.098 127.098 0 0 1 22.036-.982c.335.014.688.035.971.211.624.39.61 1.28.531 2.007-.187 1.735-.323 3.51.091 5.205.413 1.695 1.464 3.321 3.072 4.021 1.984.863 4.39.114 6.002-1.324 1.613-1.437 2.58-3.443 3.403-5.435 2.49-6.024 4.018-12.388 5.537-18.723.449-1.87.9-3.77.832-5.691-.067-1.86-.62-3.67-1.294-5.406-.601-1.549-1.315-3.082-2.397-4.346-2.16-2.525-5.507-3.683-8.74-4.492a67.703 67.703 0 0 0-8.754-1.588c-4.617-.527-9.503-.645-13.473-3.044L17.187 46.01z"/>
        <path fill="#4D4D4D" d="M84.823 45.355c.021-1.674-.143-3.34-.421-4.99-.139-.823-.833-1.267-1.523-1.252a.714.714 0 0 0-.357.05l-.004.002c-.336.09-.644.3-.859.64-.026.04-.053.079-.077.123a41.152 41.152 0 0 1-7.227 9.99c-.074-.096-.147-.193-.225-.286-2.141-2.536-5.457-3.7-8.663-4.513a66.414 66.414 0 0 0-8.676-1.595c-3.083-.357-6.287-.53-9.253-1.34-1.435-.393-2.816-.932-4.1-1.719l-26.285 5.099c-3.24 5.875-3.893 13.078-2.007 19.51a24.277 24.277 0 0 0 2.316 5.43c.438.747.914 1.477 1.372 2.214 5.506 2.854 11.472 3.15 17.245 1.132 2.993-1.045 5.849-2.74 8.795-4.014 3.14-1.359 6.385-2.24 9.66-2.622 4.445-.519 9.123-.045 12.994 3.064 2.316 1.86 4.233 4.572 6.324 6.895 1.2-3.958 2.159-7.998 3.112-12.027.346-1.465.692-2.948.796-4.445 1.691-2.075 3.433-4.693 4.462-6.21 1.799-2.655 2.562-5.923 2.601-9.136z"/>
        <path fill="#E6E6E6" d="M60.876 89.795s1.791-1.517 2.09-3.913c0 0 .238 3.613-.463 4.887 0 0-1.12-.353-1.627-.974zM64.133 91.224s1.022-2.403.773-3.85c0 0 .96 2.302.772 3.708 0 0-.907.284-1.545.142zM24.702 90.601s1.791-1.3 2.09-3.354c0 0 .238 3.097-.463 4.19 0 0-1.12-.303-1.627-.836zM27.96 91.569s1.022-2.804.773-4.492c0 0 .96 2.686.772 4.326 0 0-.907.332-1.546.166z"/>
        <path fill="#009C81" d="M56.581 43.816s-3.292-1.063-2.146-3.632c1.146-2.57 3.697-5.545 3.697-5.545s4.72 3.868.411 9.488l-1.962-.311z"/>
        <path fill="#009C81" d="M56.895 42.537s-1.735-2.71.744-4.067c2.479-1.358 6.246-2.23 6.246-2.23s.992 5.72-5.75 7.66l-1.24-1.363z"/>
        <path fill="#00AA8D" d="M58.39 46.967c-2.821 4.935-14.143 20.695-25.06 24.297a2.087 2.087 0 0 1-1.367-.036c-2.827-1.029-13.623-5.21-17.415-10.357 0 0-1.655-2.08 0-3.566 1.47-1.32 32.47-12.742 39.51-15.108.84-.282 3.069.325 3.65 1.003l1.215.748c.618.722-.06 2.19-.534 3.02z"/>
        <path fill="#474747" d="M17.377 12.18S14.865 3.813 1.309 8.183c0 0-2.924 11.468 7.301 13.61 0 0 10.022-4.017 8.767-9.613z"/>
        <path fill="#FCB6B6" d="M15.959 13.775s-3.05-6.338-11.253-2.882c0 0-.403 8.056 6.264 9.828 0 0 4.124-2.11 4.989-6.946z"/>
        <path fill="#474747" d="M31.916 10.428s-.834-8.813 13.43-9.584c0 0 7.068 9.78-1.631 15.5 0 0-10.845-.174-11.799-5.916z"/>
        <path fill="#FCB6B6" d="M33.952 10.889s.598-6.745 9.245-6.684c0 0 3.132 7.005-2.323 11.023 0 0-4.475-.362-6.922-4.34z"/>
        <path fill="#F7F7F7" d="M56.345 41.682c-.265-2.402-1.615-4.528-3.767-6.274l-4.813.688C46.488 24.04 36.47 16.379 27.74 16.336c-8.734-.044-17.687 9.16-17.583 22.556.007.883.052 1.734.13 2.558l-4.428.632c-1.165 1.886-2.186 4.08-1.966 6.068.817 7.388 11.844 12.183 25.18 11.26 2.657-.062 5.214-.438 7.602-1.132 11.946-2.76 20.437-9.66 19.67-16.596z"/>
        <path fill="#4D4D4D" d="M51.161 36.299l.89-.126c-.43-14.708-13.689-26.081-25.217-26.133C15.879 9.991 4.58 22.168 4.71 37.126c.018 2.04.233 3.933.613 5.693l.022-.036-.042.154c3.455 2.2 4.519-.657 4.519-.657l-.057-.129.04-.005a29.19 29.19 0 0 1-.131-2.547c-.045-5.721 1.59-10.67 4.16-14.46l-.227.4.253-.096c2.487-1.194 4.378-.596 5.89.406.733.485 1.299 1.147 1.83 1.816 2.955 3.735 4.597 8.76 5.818 13.234l1.904.51-.099-.809 1.488-.792c.018-4.609.299-9.849 2.194-14.12.34-.766.716-1.533 1.301-2.164 1.15-1.24 2.728-2.197 5.228-1.756 4.183 3.418 7.4 8.58 8.1 14.999l-.02.002.025.035.002.01.005-.001c.227.297 1.772 2.074 4.526-.628l-.891.114z"/>
        <path fill="#333" d="M40.934 35.597c-.168 1.343-1.448 2.302-2.86 2.143-1.413-.16-2.422-1.377-2.255-2.72.168-1.343 1.45-2.302 2.861-2.143 1.413.16 2.422 1.378 2.254 2.72zM20.044 38.187a2.575 2.575 0 0 1-2.861 2.25 2.572 2.572 0 0 1-2.254-2.856 2.575 2.575 0 0 1 2.862-2.25 2.572 2.572 0 0 1 2.253 2.856zM34.835 50.648c-1.08.3-2.454-.444-3.369-1.36-.693-.696-1.164-1.644-1.5-2.664l-.375-3.267-.607.07.379 3.291c-.05 1.054-.248 2.073-.722 2.909-.633 1.12-1.756 2.193-2.88 2.181-.267-.003-.19.544.077.547 1.24.012 2.45-1.152 3.147-2.38.452-.794.675-1.732.761-2.718.353.94.825 1.798 1.483 2.455 1.005 1.004 2.488 1.815 3.682 1.482.255-.07.182-.618-.076-.546z"/>
        <path fill="#333" d="M34.005 41.188c.15 1.487-1.597 4.094-4.053 4.347-2.455.253-4.69-1.944-4.84-3.43-.15-1.488 1.719-2.898 4.174-3.152 2.456-.252 4.568.748 4.719 2.235z"/>
    </g>
</svg>
