<svg xmlns="http://www.w3.org/2000/svg" width="24" height="24" viewBox="0 0 24 24">
    <path fill="#00AA8D" fill-rule="nonzero" d="M13.002 0a1.48 1.48 0 0 1 1.463 1.238l.28 1.663c.587.175 1.153.41 1.694.696l1.393-.992a1.47 1.47 0 0 1 1.904.16L21.23 4.26c.516.51.581 1.318.16 1.909l-.992 1.388c.276.52.502 1.067.677 1.633l1.683.286c.717.12 1.238.736 1.228 1.463v2.11a1.48 1.48 0 0 1-1.238 1.462l-1.683.28c-.17.562-.401 1.108-.677 1.634l.993 1.393c.42.591.35 1.398-.16 1.91l-1.494 1.492a1.47 1.47 0 0 1-1.047.436l-.154-.008a1.464 1.464 0 0 1-.708-.267l-1.388-.993a9.506 9.506 0 0 1-1.633.677l-.286 1.683a1.48 1.48 0 0 1-1.463 1.238h-2.114a1.48 1.48 0 0 1-1.463-1.238l-.28-1.683a9.479 9.479 0 0 1-1.584-.651l-1.408 1.002a1.47 1.47 0 0 1-1.904-.16L2.8 19.76a1.477 1.477 0 0 1-.16-1.909l.987-1.373a9.272 9.272 0 0 1-.687-1.628l-1.703-.29A1.48 1.48 0 0 1 0 13.096v-2.11a1.48 1.48 0 0 1 1.238-1.462l1.663-.28c.17-.567.39-1.113.666-1.64L2.565 6.199a1.483 1.483 0 0 1 .16-1.91l1.499-1.492c.275-.28.651-.436 1.047-.436.31 0 .611.095.862.275l1.378.993a9.272 9.272 0 0 1 1.628-.687l.29-1.703A1.48 1.48 0 0 1 10.894 0zm-.246 2.348h-1.882a.116.116 0 0 0-.116.098l-.322 1.891a.612.612 0 0 1-.443.483 7.09 7.09 0 0 0-1.869.787.612.612 0 0 1-.661-.027L5.92 4.48a.11.11 0 0 0-.067-.022.114.114 0 0 0-.085.036L4.436 5.826a.122.122 0 0 0-.013.152l1.113 1.565a.597.597 0 0 1 .031.652 7.15 7.15 0 0 0-.764 1.878.604.604 0 0 1-.488.447l-1.864.313a.116.116 0 0 0-.098.116v1.882c0 .058.04.108.098.117l1.891.321c.233.04.42.215.483.443a7.09 7.09 0 0 0 .787 1.869.612.612 0 0 1-.027.661l-1.1 1.543a.121.121 0 0 0 .014.152l1.332 1.332a.12.12 0 0 0 .085.036.133.133 0 0 0 .067-.023l1.565-1.113a.589.589 0 0 1 .348-.112c.103 0 .21.027.304.08.577.332 1.194.587 1.833.752a.6.6 0 0 1 .443.483l.313 1.877a.116.116 0 0 0 .116.099h1.882c.058 0 .107-.04.116-.099l.318-1.877a.593.593 0 0 1 .442-.483 7.157 7.157 0 0 0 1.874-.778.604.604 0 0 1 .657.027l1.551 1.104a.11.11 0 0 0 .067.023.114.114 0 0 0 .085-.036l1.332-1.332a.122.122 0 0 0 .014-.152l-1.105-1.556a.604.604 0 0 1-.026-.657 7.157 7.157 0 0 0 .778-1.874.6.6 0 0 1 .482-.442l1.878-.313a.116.116 0 0 0 .098-.116h.005v-1.882a.116.116 0 0 0-.099-.117l-1.877-.317a.593.593 0 0 1-.483-.443 7.157 7.157 0 0 0-.778-1.873.604.604 0 0 1 .027-.657l1.104-1.551a.121.121 0 0 0-.013-.152l-1.332-1.333a.12.12 0 0 0-.085-.035.133.133 0 0 0-.067.022l-1.543 1.109a.604.604 0 0 1-.657.027 7.256 7.256 0 0 0-1.918-.787.604.604 0 0 1-.447-.488l-.313-1.864a.116.116 0 0 0-.116-.098zM12 8c2.207 0 4 1.793 4 4s-1.793 4-4 4-4-1.793-4-4 1.793-4 4-4zm.01 1.75A2.251 2.251 0 0 0 9.76 12a2.251 2.251 0 0 0 2.25 2.25A2.251 2.251 0 0 0 14.26 12a2.251 2.251 0 0 0-2.25-2.25z"/>
</svg>
