<svg xmlns="http://www.w3.org/2000/svg" width="104" height="50" viewBox="0 0 104 50">
    <g fill="none" fill-rule="evenodd">
        <path fill="#FFF" d="M78.977 0c4.832 0 9.556 1.466 13.574 4.213 4.018 2.747 7.15 6.652 8.998 11.22a25.54 25.54 0 0 1 1.39 14.444 25.186 25.186 0 0 1-6.686 12.8 24.266 24.266 0 0 1-12.51 6.843c-4.739.964-9.651.469-14.115-1.423-4.465-1.892-8.28-5.097-10.965-9.208A25.416 25.416 0 0 1 54.545 25c0-6.63 2.575-12.99 7.156-17.678C66.283 2.634 72.498 0 78.977 0z"/>
        <path fill="#FFF" fill-rule="nonzero" d="M42.928 19.848a5.64 5.64 0 0 1 2.766-1.08 5.588 5.588 0 0 1 2.92.484 5.78 5.78 0 0 1 1.89 1.413c.561.6 1 1.31 1.289 2.087.64 1.639.64 3.47 0 5.108a6.22 6.22 0 0 1-1.289 2.09 5.888 5.888 0 0 1-1.89 1.414 5.63 5.63 0 0 1-5.686-.6V37.5h-2.645V19.513a4.046 4.046 0 0 1 1.632-.685 4.48 4.48 0 0 1 .854-.113h.174l-.015 1.133zm2.04 9.009a3.028 3.028 0 0 0 2.593 0c.406-.199.769-.48 1.065-.83.313-.35.556-.762.715-1.21a4.247 4.247 0 0 0 0-2.99c-.158-.449-.401-.86-.715-1.211a3.29 3.29 0 0 0-1.065-.83 3.029 3.029 0 0 0-2.592 0c-.402.201-.763.477-1.066.814a4.164 4.164 0 0 0-.99 2.687v.066c-.002.506.09 1.009.272 1.48.165.443.409.852.718 1.206.302.34.663.617 1.066.818zm-16.487-2.465a3.64 3.64 0 0 0 1.198 1.947c.569.49 1.278.773 2.018.806h.416c.659.038 1.315-.12 1.89-.456a3.286 3.286 0 0 1 1.446 1.017c.245.262.46.552.643.864a7.101 7.101 0 0 1-1.84.958 8.419 8.419 0 0 1-2.57.342 5.395 5.395 0 0 1-2.34-.521 6.138 6.138 0 0 1-1.915-1.398 6.828 6.828 0 0 1-1.289-2.09 7.294 7.294 0 0 1 0-5.125c.304-.77.74-1.477 1.289-2.086a6.077 6.077 0 0 1 1.916-1.398 5.455 5.455 0 0 1 2.354-.518 5.304 5.304 0 0 1 2.075.417c.644.27 1.236.657 1.75 1.14a6.422 6.422 0 0 1 1.246 1.733c.333.681.563 1.411.68 2.165a7.965 7.965 0 0 1 0 2.188l-8.967.015zm6.232-2.188a3.839 3.839 0 0 0-1.134-1.946 2.88 2.88 0 0 0-1.98-.78 2.83 2.83 0 0 0-1.961.78 4.003 4.003 0 0 0-1.134 1.946h6.209zm-20.225 2.188a3.686 3.686 0 0 0 1.198 1.947c.57.488 1.278.77 2.018.806h.42c.659.039 1.315-.12 1.889-.456a3.267 3.267 0 0 1 1.447 1.017c.247.261.464.551.646.864a7.077 7.077 0 0 1-1.844.958 8.403 8.403 0 0 1-2.57.342 5.41 5.41 0 0 1-2.339-.521 6.122 6.122 0 0 1-1.912-1.398 6.683 6.683 0 0 1-1.288-2.09 7.238 7.238 0 0 1 0-5.125c.3-.771.737-1.479 1.288-2.086a6.051 6.051 0 0 1 1.912-1.398 5.465 5.465 0 0 1 2.35-.518 5.303 5.303 0 0 1 2.075.417c.64.279 1.227.674 1.731 1.168.51.5.933 1.086 1.251 1.732a7.21 7.21 0 0 1 .756 3.259c.002.366-.024.732-.076 1.094l-8.952-.012zm6.231-2.188a3.83 3.83 0 0 0-1.133-1.946 2.888 2.888 0 0 0-1.98-.78 2.818 2.818 0 0 0-1.962.78 4.01 4.01 0 0 0-1.133 1.946h6.208zm-10.048 7.503a7.819 7.819 0 0 1-1.67.19c-.53 0-1.057-.064-1.572-.19l-4.028-5.922-.756.712v5.373H0V13.315a3.717 3.717 0 0 1 1.621-.674c.296-.074.599-.12.903-.136a.459.459 0 0 1 .133 0v10.247l4.016-3.893a9.214 9.214 0 0 1 1.724-.125h.774c.522.023.987.062 1.387.117l-5.192 5.034 5.305 7.822z"/>
        <path fill="#00BF9A" fill-rule="nonzero" d="M95.823 28.314c.335.474.554 1.022.641 1.6.069.284.11.575.122.868a.616.616 0 0 1 0 .158h-.792a5.36 5.36 0 0 1-2.354-.58 8.144 8.144 0 0 1-.663-.44 4.934 4.934 0 0 1-1.396-1.715 4.959 4.959 0 0 1-.53-2.247v-5.525h-1.746v-.057c.003-.3.048-.597.133-.884.109-.442.323-.85.622-1.19h1.002v-2.773c.43-.308.917-.52 1.433-.625a5.408 5.408 0 0 1 1.105-.131h.04V18.3h2.947v.06a3.555 3.555 0 0 1-.133.88 2.755 2.755 0 0 1-.604 1.192h-2.21v5.517c-.012.457.117.906.369 1.285.21.302.491.547.817.712.365.204.765.33 1.179.374l.018-.007zm-16.822-2.615a3.54 3.54 0 0 0 1.168 1.873c.555.47 1.246.742 1.967.776h.405a3.296 3.296 0 0 0 1.842-.439c.549.19 1.037.528 1.41.978a4.9 4.9 0 0 1 .649.81 6.932 6.932 0 0 1-1.798.92 8.306 8.306 0 0 1-2.504.33 5.33 5.33 0 0 1-2.28-.502 5.98 5.98 0 0 1-1.868-1.344 6.474 6.474 0 0 1-1.252-2.012 6.88 6.88 0 0 1 0-4.93 6.5 6.5 0 0 1 1.252-2.007 5.921 5.921 0 0 1 1.868-1.345 5.386 5.386 0 0 1 2.294-.506 5.227 5.227 0 0 1 2.023.401c.624.269 1.195.65 1.687 1.124a6.108 6.108 0 0 1 1.215 1.667c.491.969.744 2.045.737 3.135.002.352-.023.704-.074 1.053l-8.74.018zm6.074-2.105a3.667 3.667 0 0 0-1.123-1.873 2.828 2.828 0 0 0-1.926-.749 2.78 2.78 0 0 0-1.916.75 3.826 3.826 0 0 0-1.105 1.872h6.07zM65.053 19.38a5.512 5.512 0 0 1 5.525-.573 5.64 5.64 0 0 1 1.867 1.367 6.04 6.04 0 0 1 1.252 2.008 6.64 6.64 0 0 1 0 4.914 6.008 6.008 0 0 1-1.252 2.012 5.747 5.747 0 0 1-1.842 1.36 5.54 5.54 0 0 1-5.525-.58v6.476H62.5V19.073a3.927 3.927 0 0 1 1.591-.66c.272-.062.55-.098.829-.108h.17l-.037 1.075zm2.003 8.66c.396.187.827.283 1.264.281.437.001.87-.095 1.267-.28.396-.19.748-.462 1.035-.798.306-.338.544-.734.7-1.165a4.087 4.087 0 0 0 0-2.877 3.472 3.472 0 0 0-.7-1.165 3.155 3.155 0 0 0-1.035-.798 2.978 2.978 0 0 0-2.53 0c-.391.192-.742.458-1.036.783-.303.341-.54.738-.7 1.169-.179.45-.27.93-.268 1.416v.063c0 .488.09.97.268 1.424.16.428.398.821.7 1.16.292.328.644.595 1.035.787z"/>
    </g>
</svg>
