<svg xmlns="http://www.w3.org/2000/svg" width="127" height="60" viewBox="0 0 127 60">
    <g fill="none" fill-rule="evenodd">
        <path fill="#00AA8D" d="M96.881 0c5.926 0 11.718 1.76 16.645 5.056a29.99 29.99 0 0 1 11.035 13.463 30.037 30.037 0 0 1 1.705 17.334 30.013 30.013 0 0 1-8.2 15.36 29.927 29.927 0 0 1-32.65 6.503A29.969 29.969 0 0 1 71.97 46.667a30.028 30.028 0 0 1 3.726-37.88A29.94 29.94 0 0 1 96.88 0z"/>
        <path fill="#3A3E3F" fill-rule="nonzero" d="M52.106 23.818a6.962 6.962 0 0 1 6.902-.703c.87.394 1.65.961 2.294 1.668a7.344 7.344 0 0 1 1.564 2.461 8.081 8.081 0 0 1 0 6.026 7.307 7.307 0 0 1-1.564 2.466 7.135 7.135 0 0 1-2.294 1.668 7.01 7.01 0 0 1-6.902-.708v7.946h-3.211V23.423a4.988 4.988 0 0 1 1.981-.808c.34-.077.688-.122 1.037-.133h.21l-.017 1.336zm2.477 10.628a3.764 3.764 0 0 0 3.146 0 3.981 3.981 0 0 0 1.293-.978c.38-.415.675-.9.867-1.429a4.878 4.878 0 0 0 0-3.527 4.237 4.237 0 0 0-.867-1.428 3.98 3.98 0 0 0-1.293-.979 3.765 3.765 0 0 0-3.146 0 4.35 4.35 0 0 0-1.294.96 4.83 4.83 0 0 0-1.202 3.17v.077c-.002.598.11 1.19.33 1.746.202.523.497 1.006.872 1.423.366.4.805.728 1.294.965zM34.57 31.539c.223.903.733 1.71 1.454 2.296.69.578 1.551.912 2.45.95h.504a4.17 4.17 0 0 0 2.294-.537 3.99 3.99 0 0 1 1.756 1.199c.297.31.559.652.78 1.02a8.71 8.71 0 0 1-2.234 1.13c-1.013.29-2.065.426-3.119.404a6.708 6.708 0 0 1-2.839-.616 7.444 7.444 0 0 1-2.325-1.649 8.02 8.02 0 0 1-1.564-2.466 8.378 8.378 0 0 1 0-6.044 8.107 8.107 0 0 1 1.564-2.462 7.37 7.37 0 0 1 2.325-1.649 6.783 6.783 0 0 1 2.858-.61 6.6 6.6 0 0 1 2.518.491c.782.32 1.5.775 2.123 1.346a7.586 7.586 0 0 1 1.514 2.043c.405.804.683 1.665.826 2.554a9.136 9.136 0 0 1 0 2.581l-10.885.019zm7.564-2.582a4.502 4.502 0 0 0-1.376-2.296 3.552 3.552 0 0 0-2.404-.919 3.488 3.488 0 0 0-2.38.919 4.695 4.695 0 0 0-1.376 2.296h7.536zM17.586 31.54a4.331 4.331 0 0 0 1.454 2.296c.69.575 1.55.91 2.449.95h.51c.8.047 1.596-.14 2.292-.537.684.232 1.291.647 1.757 1.199.3.308.563.65.785 1.02a8.682 8.682 0 0 1-2.239 1.13c-1.013.29-2.065.427-3.119.404a6.726 6.726 0 0 1-2.839-.616 7.425 7.425 0 0 1-2.32-1.649 7.85 7.85 0 0 1-1.565-2.466 8.314 8.314 0 0 1 0-6.044 7.937 7.937 0 0 1 1.564-2.462 7.338 7.338 0 0 1 2.321-1.649 6.795 6.795 0 0 1 2.853-.61 6.599 6.599 0 0 1 2.518.491 7.02 7.02 0 0 1 2.1 1.378 7.506 7.506 0 0 1 1.519 2.044 8.31 8.31 0 0 1 .918 3.844c.002.432-.03.863-.092 1.29l-10.866-.013zm7.563-2.582a4.493 4.493 0 0 0-1.376-2.296 3.562 3.562 0 0 0-2.403-.919 3.474 3.474 0 0 0-2.38.919 4.704 4.704 0 0 0-1.377 2.296h7.536zm-12.196 8.85a9.753 9.753 0 0 1-2.027.226 8.247 8.247 0 0 1-1.908-.225l-4.89-6.986-.917.84v6.339H0V16.11a4.583 4.583 0 0 1 1.968-.794c.36-.087.726-.141 1.096-.16a.573.573 0 0 1 .16 0v12.087L8.1 22.652a11.501 11.501 0 0 1 2.092-.147h.94c.633.027 1.197.073 1.683.137l-6.302 5.939 6.44 9.227z"/>
        <path fill="#FFF" fill-rule="nonzero" d="M117.178 34.781a4.55 4.55 0 0 1 .798 1.961c.085.35.136.706.151 1.066a.744.744 0 0 1 0 .193h-.986a6.759 6.759 0 0 1-2.93-.712c-.34-.202-.615-.381-.826-.538a6.07 6.07 0 0 1-1.739-2.103 6.004 6.004 0 0 1-.66-2.756v-6.774h-2.174v-.069c.004-.367.06-.732.165-1.084a3.45 3.45 0 0 1 .775-1.46H111v-3.399a4.675 4.675 0 0 1 1.784-.767c.452-.1.913-.154 1.376-.16h.05v4.326h3.67v.073a4.296 4.296 0 0 1-.165 1.08 3.359 3.359 0 0 1-.753 1.46h-2.752v6.765c-.015.56.145 1.111.459 1.575.262.37.612.67 1.018.873.454.25.953.406 1.468.46l.023-.01zM96.23 31.575a4.332 4.332 0 0 0 1.454 2.297c.692.575 1.552.909 2.45.95h.504c.8.046 1.597-.14 2.293-.537.684.232 1.291.647 1.757 1.199.304.3.574.633.807.992a8.683 8.683 0 0 1-2.238 1.13c-1.013.29-2.065.427-3.119.404a6.726 6.726 0 0 1-2.84-.616 7.444 7.444 0 0 1-2.325-1.648 7.92 7.92 0 0 1-1.56-2.467 8.314 8.314 0 0 1 0-6.044 7.952 7.952 0 0 1 1.56-2.462 7.371 7.371 0 0 1 2.326-1.648 6.795 6.795 0 0 1 2.857-.62 6.598 6.598 0 0 1 2.519.491c.777.33 1.488.796 2.1 1.378a7.496 7.496 0 0 1 1.514 2.044 8.275 8.275 0 0 1 .917 3.844 8.5 8.5 0 0 1-.091 1.29l-10.885.023zm7.564-2.58a4.483 4.483 0 0 0-1.4-2.297 3.552 3.552 0 0 0-2.398-.919 3.493 3.493 0 0 0-2.385.919 4.676 4.676 0 0 0-1.376 2.296h7.559zM78.86 23.826a6.962 6.962 0 0 1 9.206.974 7.39 7.39 0 0 1 1.56 2.462 8.024 8.024 0 0 1 0 6.025 7.35 7.35 0 0 1-1.56 2.467 7.15 7.15 0 0 1-2.294 1.667 6.996 6.996 0 0 1-6.88-.712v7.94h-3.21v-21.2a4.932 4.932 0 0 1 1.981-.808 5.497 5.497 0 0 1 1.032-.133h.211l-.046 1.318zm2.495 10.619c.493.229 1.03.346 1.574.344.544.001 1.083-.116 1.577-.344a3.92 3.92 0 0 0 1.29-.978c.38-.415.677-.9.87-1.429a4.938 4.938 0 0 0 0-3.527 4.245 4.245 0 0 0-.87-1.428 3.922 3.922 0 0 0-1.29-.979 3.757 3.757 0 0 0-1.577-.344 3.707 3.707 0 0 0-1.574.344 4.28 4.28 0 0 0-1.288.96 4.497 4.497 0 0 0-.872 1.433 4.599 4.599 0 0 0-.335 1.736v.078c0 .598.113 1.19.335 1.746.2.524.495 1.007.872 1.423a4.22 4.22 0 0 0 1.288.965z"/>
    </g>
</svg>
