<svg xmlns="http://www.w3.org/2000/svg" width="17" height="14" viewBox="0 0 17 14">
    <g fill="#00AA8D" fill-rule="nonzero">
        <path d="M15.991 2.795a2.173 2.173 0 0 0-1.568-.63H12.48l-.442-1.141c-.11-.275-.31-.511-.602-.71a1.576 1.576 0 0 0-.897-.298H6.102c-.306 0-.605.1-.897.298-.292.199-.493.435-.603.71L4.16 2.166H2.22c-.613 0-1.136.21-1.569.63A2.04 2.04 0 0 0 0 4.315v7.523c0 .594.217 1.1.65 1.52.433.42.956.63 1.569.63h12.204c.612 0 1.135-.21 1.568-.63.434-.42.65-.926.65-1.52V4.315c0-.593-.216-1.1-.65-1.52zm-4.927 7.94c-.76.736-1.674 1.104-2.743 1.104-1.07 0-1.984-.368-2.744-1.104-.76-.736-1.14-1.622-1.14-2.657 0-1.036.38-1.922 1.14-2.658.76-.736 1.675-1.104 2.744-1.104 1.069 0 1.983.368 2.743 1.104.76.736 1.14 1.622 1.14 2.658 0 1.035-.38 1.92-1.14 2.657z"/>
        <path d="M8.32 5.659c-.687 0-1.275.236-1.763.71a2.293 2.293 0 0 0-.733 1.709c0 .666.245 1.235.733 1.708.488.473 1.076.71 1.764.71.687 0 1.275-.237 1.764-.71a2.293 2.293 0 0 0 .732-1.708c0-.667-.244-1.236-.732-1.71a2.444 2.444 0 0 0-1.764-.71z"/>
    </g>
</svg>
